{
	"asset": {
		"version": "2.0",
		"generator": "wow.export v0.1.65 win-x64 [d1c6caee-c9d0-469b-8ef3-69abea558672]"
	},
	"nodes": [
		{
			"name": "duskwoodchapel",
			"children": [
				1,
				2,
				3,
				4,
				5,
				6,
				7,
				8,
				9,
				10,
				11,
				12,
				13,
				14,
				15,
				16,
				17,
				18,
				19,
				20,
				21,
				22
			]
		},
		{
			"name": "duskwoodchapel_int010",
			"mesh": 0
		},
		{
			"name": "duskwoodchapel_int011",
			"mesh": 1
		},
		{
			"name": "duskwoodchapel_int012",
			"mesh": 2
		},
		{
			"name": "duskwoodchapel_int013",
			"mesh": 3
		},
		{
			"name": "duskwoodchapel_int014",
			"mesh": 4
		},
		{
			"name": "duskwoodchapel_int015",
			"mesh": 5
		},
		{
			"name": "duskwoodchapel_int016",
			"mesh": 6
		},
		{
			"name": "duskwoodchapel_int017",
			"mesh": 7
		},
		{
			"name": "duskwoodchapel_int018",
			"mesh": 8
		},
		{
			"name": "duskwoodchapel_int019",
			"mesh": 9
		},
		{
			"name": "duskwoodchapel_int0110",
			"mesh": 10
		},
		{
			"name": "duskwoodchapel_int0111",
			"mesh": 11
		},
		{
			"name": "duskwoodchapel_ext010",
			"mesh": 12
		},
		{
			"name": "duskwoodchapel_ext011",
			"mesh": 13
		},
		{
			"name": "duskwoodchapel_ext012",
			"mesh": 14
		},
		{
			"name": "duskwoodchapel_ext013",
			"mesh": 15
		},
		{
			"name": "duskwoodchapel_ext014",
			"mesh": 16
		},
		{
			"name": "duskwoodchapel_ext015",
			"mesh": 17
		},
		{
			"name": "duskwoodchapel_ext016",
			"mesh": 18
		},
		{
			"name": "duskwoodchapel_ext017",
			"mesh": 19
		},
		{
			"name": "duskwoodchapel_ext018",
			"mesh": 20
		},
		{
			"name": "duskwoodchapel_ext019",
			"mesh": 21
		}
	],
	"scenes": [
		{
			"name": "duskwoodchapel_Scene",
			"nodes": [
				0
			]
		}
	],
	"buffers": [
		{
			"uri": "duskwoodchapel.bin",
			"byteLength": 200292
		}
	],
	"bufferViews": [
		{
			"buffer": 0,
			"byteLength": 61380,
			"byteOffset": 0,
			"target": 34962
		},
		{
			"buffer": 0,
			"byteLength": 61380,
			"byteOffset": 61380,
			"target": 34962
		},
		{
			"buffer": 0,
			"byteLength": 40920,
			"byteOffset": 122760,
			"target": 34962
		},
		{
			"buffer": 0,
			"byteLength": 51,
			"byteOffset": 163680,
			"target": 34963
		},
		{
			"buffer": 0,
			"byteLength": 309,
			"byteOffset": 163731,
			"target": 34963
		},
		{
			"buffer": 0,
			"byteLength": 225,
			"byteOffset": 164040,
			"target": 34963
		},
		{
			"buffer": 0,
			"byteLength": 117,
			"byteOffset": 164265,
			"target": 34963
		},
		{
			"buffer": 0,
			"byteLength": 1368,
			"byteOffset": 164382,
			"target": 34963
		},
		{
			"buffer": 0,
			"byteLength": 366,
			"byteOffset": 165750,
			"target": 34963
		},
		{
			"buffer": 0,
			"byteLength": 4284,
			"byteOffset": 166116,
			"target": 34963
		},
		{
			"buffer": 0,
			"byteLength": 7074,
			"byteOffset": 170400,
			"target": 34963
		},
		{
			"buffer": 0,
			"byteLength": 6036,
			"byteOffset": 177474,
			"target": 34963
		},
		{
			"buffer": 0,
			"byteLength": 7842,
			"byteOffset": 183510,
			"target": 34963
		},
		{
			"buffer": 0,
			"byteLength": 1326,
			"byteOffset": 191352,
			"target": 34963
		},
		{
			"buffer": 0,
			"byteLength": 1038,
			"byteOffset": 192678,
			"target": 34963
		},
		{
			"buffer": 0,
			"byteLength": 300,
			"byteOffset": 193716,
			"target": 34963
		},
		{
			"buffer": 0,
			"byteLength": 60,
			"byteOffset": 194016,
			"target": 34963
		},
		{
			"buffer": 0,
			"byteLength": 276,
			"byteOffset": 194076,
			"target": 34963
		},
		{
			"buffer": 0,
			"byteLength": 3468,
			"byteOffset": 194352,
			"target": 34963
		},
		{
			"buffer": 0,
			"byteLength": 552,
			"byteOffset": 197820,
			"target": 34963
		},
		{
			"buffer": 0,
			"byteLength": 492,
			"byteOffset": 198372,
			"target": 34963
		},
		{
			"buffer": 0,
			"byteLength": 24,
			"byteOffset": 198864,
			"target": 34963
		},
		{
			"buffer": 0,
			"byteLength": 1008,
			"byteOffset": 198888,
			"target": 34963
		},
		{
			"buffer": 0,
			"byteLength": 384,
			"byteOffset": 199896,
			"target": 34963
		},
		{
			"buffer": 0,
			"byteLength": 12,
			"byteOffset": 200280,
			"target": 34963
		}
	],
	"accessors": [
		{
			"name": "POSITION",
			"bufferView": 0,
			"byteOffset": 0,
			"componentType": 5126,
			"count": 5115,
			"type": "VEC3",
			"min": [
				-11.088059425354004,
				-2.7950069904327393,
				-11.794916152954102
			],
			"max": [
				31.215776443481445,
				42.72063064575195,
				11.79491901397705
			]
		},
		{
			"name": "NORMAL",
			"bufferView": 1,
			"byteOffset": 0,
			"componentType": 5126,
			"count": 5115,
			"type": "VEC3",
			"min": [
				-1,
				-1,
				-1
			],
			"max": [
				1,
				1,
				1
			]
		},
		{
			"name": "TEXCOORD_0",
			"bufferView": 2,
			"byteOffset": 0,
			"componentType": 5126,
			"count": 5115,
			"type": "VEC2",
			"min": [
				-1.4679534435272217,
				-3.00557279586792
			],
			"max": [
				5,
				1.5
			]
		},
		{
			"bufferView": 3,
			"byteOffset": 0,
			"componentType": 5121,
			"count": 51,
			"type": "SCALAR"
		},
		{
			"bufferView": 4,
			"byteOffset": 0,
			"componentType": 5121,
			"count": 309,
			"type": "SCALAR"
		},
		{
			"bufferView": 5,
			"byteOffset": 0,
			"componentType": 5121,
			"count": 225,
			"type": "SCALAR"
		},
		{
			"bufferView": 6,
			"byteOffset": 0,
			"componentType": 5121,
			"count": 117,
			"type": "SCALAR"
		},
		{
			"bufferView": 7,
			"byteOffset": 0,
			"componentType": 5123,
			"count": 684,
			"type": "SCALAR"
		},
		{
			"bufferView": 8,
			"byteOffset": 0,
			"componentType": 5123,
			"count": 183,
			"type": "SCALAR"
		},
		{
			"bufferView": 9,
			"byteOffset": 0,
			"componentType": 5123,
			"count": 2142,
			"type": "SCALAR"
		},
		{
			"bufferView": 10,
			"byteOffset": 0,
			"componentType": 5123,
			"count": 3537,
			"type": "SCALAR"
		},
		{
			"bufferView": 11,
			"byteOffset": 0,
			"componentType": 5123,
			"count": 3018,
			"type": "SCALAR"
		},
		{
			"bufferView": 12,
			"byteOffset": 0,
			"componentType": 5123,
			"count": 3921,
			"type": "SCALAR"
		},
		{
			"bufferView": 13,
			"byteOffset": 0,
			"componentType": 5123,
			"count": 663,
			"type": "SCALAR"
		},
		{
			"bufferView": 14,
			"byteOffset": 0,
			"componentType": 5123,
			"count": 519,
			"type": "SCALAR"
		},
		{
			"bufferView": 15,
			"byteOffset": 0,
			"componentType": 5123,
			"count": 150,
			"type": "SCALAR"
		},
		{
			"bufferView": 16,
			"byteOffset": 0,
			"componentType": 5123,
			"count": 30,
			"type": "SCALAR"
		},
		{
			"bufferView": 17,
			"byteOffset": 0,
			"componentType": 5123,
			"count": 138,
			"type": "SCALAR"
		},
		{
			"bufferView": 18,
			"byteOffset": 0,
			"componentType": 5123,
			"count": 1734,
			"type": "SCALAR"
		},
		{
			"bufferView": 19,
			"byteOffset": 0,
			"componentType": 5123,
			"count": 276,
			"type": "SCALAR"
		},
		{
			"bufferView": 20,
			"byteOffset": 0,
			"componentType": 5123,
			"count": 246,
			"type": "SCALAR"
		},
		{
			"bufferView": 21,
			"byteOffset": 0,
			"componentType": 5123,
			"count": 12,
			"type": "SCALAR"
		},
		{
			"bufferView": 22,
			"byteOffset": 0,
			"componentType": 5123,
			"count": 504,
			"type": "SCALAR"
		},
		{
			"bufferView": 23,
			"byteOffset": 0,
			"componentType": 5123,
			"count": 192,
			"type": "SCALAR"
		},
		{
			"bufferView": 24,
			"byteOffset": 0,
			"componentType": 5123,
			"count": 6,
			"type": "SCALAR"
		}
	],
	"meshes": [
		{
			"primitives": [
				{
					"attributes": {
						"POSITION": 0,
						"NORMAL": 1,
						"TEXCOORD_0": 2
					},
					"indices": 3,
					"mode": 4,
					"material": 7
				}
			]
		},
		{
			"primitives": [
				{
					"attributes": {
						"POSITION": 0,
						"NORMAL": 1,
						"TEXCOORD_0": 2
					},
					"indices": 4,
					"mode": 4,
					"material": 2
				}
			]
		},
		{
			"primitives": [
				{
					"attributes": {
						"POSITION": 0,
						"NORMAL": 1,
						"TEXCOORD_0": 2
					},
					"indices": 5,
					"mode": 4,
					"material": 8
				}
			]
		},
		{
			"primitives": [
				{
					"attributes": {
						"POSITION": 0,
						"NORMAL": 1,
						"TEXCOORD_0": 2
					},
					"indices": 6,
					"mode": 4,
					"material": 5
				}
			]
		},
		{
			"primitives": [
				{
					"attributes": {
						"POSITION": 0,
						"NORMAL": 1,
						"TEXCOORD_0": 2
					},
					"indices": 7,
					"mode": 4,
					"material": 3
				}
			]
		},
		{
			"primitives": [
				{
					"attributes": {
						"POSITION": 0,
						"NORMAL": 1,
						"TEXCOORD_0": 2
					},
					"indices": 8,
					"mode": 4,
					"material": 7
				}
			]
		},
		{
			"primitives": [
				{
					"attributes": {
						"POSITION": 0,
						"NORMAL": 1,
						"TEXCOORD_0": 2
					},
					"indices": 9,
					"mode": 4,
					"material": 2
				}
			]
		},
		{
			"primitives": [
				{
					"attributes": {
						"POSITION": 0,
						"NORMAL": 1,
						"TEXCOORD_0": 2
					},
					"indices": 10,
					"mode": 4,
					"material": 8
				}
			]
		},
		{
			"primitives": [
				{
					"attributes": {
						"POSITION": 0,
						"NORMAL": 1,
						"TEXCOORD_0": 2
					},
					"indices": 11,
					"mode": 4,
					"material": 5
				}
			]
		},
		{
			"primitives": [
				{
					"attributes": {
						"POSITION": 0,
						"NORMAL": 1,
						"TEXCOORD_0": 2
					},
					"indices": 12,
					"mode": 4,
					"material": 3
				}
			]
		},
		{
			"primitives": [
				{
					"attributes": {
						"POSITION": 0,
						"NORMAL": 1,
						"TEXCOORD_0": 2
					},
					"indices": 13,
					"mode": 4,
					"material": 1
				}
			]
		},
		{
			"primitives": [
				{
					"attributes": {
						"POSITION": 0,
						"NORMAL": 1,
						"TEXCOORD_0": 2
					},
					"indices": 14,
					"mode": 4,
					"material": 6
				}
			]
		},
		{
			"primitives": [
				{
					"attributes": {
						"POSITION": 0,
						"NORMAL": 1,
						"TEXCOORD_0": 2
					},
					"indices": 15,
					"mode": 4,
					"material": 7
				}
			]
		},
		{
			"primitives": [
				{
					"attributes": {
						"POSITION": 0,
						"NORMAL": 1,
						"TEXCOORD_0": 2
					},
					"indices": 16,
					"mode": 4,
					"material": 2
				}
			]
		},
		{
			"primitives": [
				{
					"attributes": {
						"POSITION": 0,
						"NORMAL": 1,
						"TEXCOORD_0": 2
					},
					"indices": 17,
					"mode": 4,
					"material": 0
				}
			]
		},
		{
			"primitives": [
				{
					"attributes": {
						"POSITION": 0,
						"NORMAL": 1,
						"TEXCOORD_0": 2
					},
					"indices": 18,
					"mode": 4,
					"material": 8
				}
			]
		},
		{
			"primitives": [
				{
					"attributes": {
						"POSITION": 0,
						"NORMAL": 1,
						"TEXCOORD_0": 2
					},
					"indices": 19,
					"mode": 4,
					"material": 10
				}
			]
		},
		{
			"primitives": [
				{
					"attributes": {
						"POSITION": 0,
						"NORMAL": 1,
						"TEXCOORD_0": 2
					},
					"indices": 20,
					"mode": 4,
					"material": 5
				}
			]
		},
		{
			"primitives": [
				{
					"attributes": {
						"POSITION": 0,
						"NORMAL": 1,
						"TEXCOORD_0": 2
					},
					"indices": 21,
					"mode": 4,
					"material": 1
				}
			]
		},
		{
			"primitives": [
				{
					"attributes": {
						"POSITION": 0,
						"NORMAL": 1,
						"TEXCOORD_0": 2
					},
					"indices": 22,
					"mode": 4,
					"material": 4
				}
			]
		},
		{
			"primitives": [
				{
					"attributes": {
						"POSITION": 0,
						"NORMAL": 1,
						"TEXCOORD_0": 2
					},
					"indices": 23,
					"mode": 4,
					"material": 6
				}
			]
		},
		{
			"primitives": [
				{
					"attributes": {
						"POSITION": 0,
						"NORMAL": 1,
						"TEXCOORD_0": 2
					},
					"indices": 24,
					"mode": 4,
					"material": 9
				}
			]
		}
	],
	"scene": 0,
	"images": [
		{
			"uri": "textures\\roof\\mm_aduskwood_roof_02.png"
		},
		{
			"uri": "textures\\walls\\mm_aduskwood_wall_03.png"
		},
		{
			"uri": "textures\\floor\\mm_duskwood_stonefloor_01.png"
		},
		{
			"uri": "textures\\walls\\mm_aduskwood_int_wall_01.png"
		},
		{
			"uri": "textures\\walls\\mm_duskwood_abbey_wall_01.png"
		},
		{
			"uri": "textures\\trim\\mm_duskwood_woodtrim_01.png"
		},
		{
			"uri": "textures\\windows\\mm_aduskwood_wnd_int__01.png"
		},
		{
			"uri": "textures\\combos\\mm_duskwood_combo_03.png"
		},
		{
			"uri": "textures\\trim\\mm_duskwood_design_01.png"
		},
		{
			"uri": "textures\\wood\\mm_beam_end__01x.png"
		},
		{
			"uri": "textures\\trim\\mm_duskwood_stonebase_01.png"
		}
	],
	"textures": [
		{
			"source": 0
		},
		{
			"source": 1
		},
		{
			"source": 2
		},
		{
			"source": 3
		},
		{
			"source": 4
		},
		{
			"source": 5
		},
		{
			"source": 6
		},
		{
			"source": 7
		},
		{
			"source": 8
		},
		{
			"source": 9
		},
		{
			"source": 10
		}
	],
	"materials": [
		{
			"name": "mat_mm_aduskwood_roof_02",
			"emissiveFactor": [
				0,
				0,
				0
			],
			"pbrMetallicRoughness": {
				"baseColorTexture": {
					"index": 0
				},
				"metallicFactor": 0
			}
		},
		{
			"name": "mat_mm_aduskwood_wall_03",
			"emissiveFactor": [
				0,
				0,
				0
			],
			"pbrMetallicRoughness": {
				"baseColorTexture": {
					"index": 1
				},
				"metallicFactor": 0
			}
		},
		{
			"name": "mat_mm_duskwood_stonefloor_01",
			"emissiveFactor": [
				0,
				0,
				0
			],
			"pbrMetallicRoughness": {
				"baseColorTexture": {
					"index": 2
				},
				"metallicFactor": 0
			}
		},
		{
			"name": "mat_mm_aduskwood_int_wall_01",
			"emissiveFactor": [
				0,
				0,
				0
			],
			"pbrMetallicRoughness": {
				"baseColorTexture": {
					"index": 3
				},
				"metallicFactor": 0
			}
		},
		{
			"name": "mat_mm_duskwood_abbey_wall_01",
			"emissiveFactor": [
				0,
				0,
				0
			],
			"pbrMetallicRoughness": {
				"baseColorTexture": {
					"index": 4
				},
				"metallicFactor": 0
			}
		},
		{
			"name": "mat_mm_duskwood_woodtrim_01",
			"emissiveFactor": [
				0,
				0,
				0
			],
			"pbrMetallicRoughness": {
				"baseColorTexture": {
					"index": 5
				},
				"metallicFactor": 0
			}
		},
		{
			"name": "mat_mm_aduskwood_wnd_int__01",
			"emissiveFactor": [
				0,
				0,
				0
			],
			"pbrMetallicRoughness": {
				"baseColorTexture": {
					"index": 6
				},
				"metallicFactor": 0
			}
		},
		{
			"name": "mat_mm_duskwood_combo_03",
			"emissiveFactor": [
				0,
				0,
				0
			],
			"pbrMetallicRoughness": {
				"baseColorTexture": {
					"index": 7
				},
				"metallicFactor": 0
			}
		},
		{
			"name": "mat_mm_duskwood_design_01",
			"emissiveFactor": [
				0,
				0,
				0
			],
			"pbrMetallicRoughness": {
				"baseColorTexture": {
					"index": 8
				},
				"metallicFactor": 0
			}
		},
		{
			"name": "mat_mm_beam_end__01x",
			"emissiveFactor": [
				0,
				0,
				0
			],
			"pbrMetallicRoughness": {
				"baseColorTexture": {
					"index": 9
				},
				"metallicFactor": 0
			}
		},
		{
			"name": "mat_mm_duskwood_stonebase_01",
			"emissiveFactor": [
				0,
				0,
				0
			],
			"pbrMetallicRoughness": {
				"baseColorTexture": {
					"index": 10
				},
				"metallicFactor": 0
			}
		}
	]
}